<?xml version="1.0" encoding="UTF-8"?>
<svg width="680" height="500" viewBox="0 0 680 500" xmlns="http://www.w3.org/2000/svg">
<style>
  text{font-family:Arial,sans-serif;font-size:11px;fill:#000000;}
  .t{font-size:15px;font-weight:bold;fill:#1a3a6b;}
  .d{font-size:10px;fill:#cc2200;}
  .n{font-size:9px;fill:#777777;}
</style>
<rect width="680" height="500" fill="white" stroke="#bbbbbb"/>
<rect x="4" y="4" width="672" height="492" fill="none" stroke="#1a3a6b" stroke-width="2"/>
<rect x="4" y="458" width="672" height="38" fill="#cce0ff" stroke="#1a3a6b" stroke-width="1"/>
<text x="340" y="476" text-anchor="middle" class="t">Peça 4: TAMBOR MOINHO (DRUM)</text>
<text x="340" y="490" text-anchor="middle" class="n">ConfiMinas Engenharia | PLA 0.2mm 20% infill | medidas em mm</text>
<text x="225.0" y="91" text-anchor="middle" class="t" fill="#000000">VISTA LATERAL (CORTE)</text>
<rect x="85" y="124.6" width="280.0" height="196.0" fill="#ee8822" stroke="#cc5500" stroke-width="2"/>
<rect x="107.4" y="133.0" width="243.6" height="179.2" fill="white" stroke="#777777" stroke-width="0.8"/>
<rect x="85" y="105.0" width="14.0" height="235.2" fill="#ffdd44" stroke="#cc9900" stroke-width="2"/>
<rect x="351.0" y="105.0" width="14.0" height="235.2" fill="#ffdd44" stroke="#cc9900" stroke-width="2"/>
<polygon points="85,191.8 34.6,203.0 34.6,242.2 85,253.39999999999998" fill="#ee8822" stroke="#cc5500" stroke-width="2"/>
<rect x="62.6" y="205.8" width="22.4" height="33.599999999999994" fill="#aaaaaa" stroke="#000000" stroke-width="1.5"/>
<line x1="52.6" y1="222.6" x2="375.0" y2="222.6" stroke="#777777" stroke-width="0.6" stroke-dasharray="5,3"/>
<line x1="62.6" y1="219.94" x2="102.0" y2="219.94" stroke="#000000" stroke-width="1"/>
<line x1="62.6" y1="225.26" x2="102.0" y2="225.26" stroke="#000000" stroke-width="1"/>
<text x="73.8" y="253.39999999999998" text-anchor="middle" class="n" fill="#000000">furo eixo ø1.9mm</text>
<line x1="85" y1="376.2" x2="365.0" y2="376.2" stroke="#cc2200" stroke-width="0.9"/>
<line x1="85" y1="354.2" x2="85" y2="382.2" stroke="#cc2200" stroke-width="0.6" stroke-dasharray="3,2"/>
<line x1="365.0" y1="354.2" x2="365.0" y2="382.2" stroke="#cc2200" stroke-width="0.6" stroke-dasharray="3,2"/>
<polygon points="85,376.2 91,373.2 91,379.2" fill="#cc2200"/>
<polygon points="365.0,376.2 359.0,373.2 359.0,379.2" fill="#cc2200"/>
<text x="225.0" y="371.2" text-anchor="middle" class="d" fill="#000000">100 mm</text>
<line x1="409.0" y1="105.0" x2="409.0" y2="340.2" stroke="#cc2200" stroke-width="0.9"/>
<line x1="387.0" y1="105.0" x2="415.0" y2="105.0" stroke="#cc2200" stroke-width="0.6" stroke-dasharray="3,2"/>
<line x1="387.0" y1="340.2" x2="415.0" y2="340.2" stroke="#cc2200" stroke-width="0.6" stroke-dasharray="3,2"/>
<polygon points="409.0,105.0 406.0,111.0 412.0,111.0" fill="#cc2200"/>
<polygon points="409.0,340.2 406.0,334.2 412.0,334.2" fill="#cc2200"/>
<text x="423.0" y="226.6" text-anchor="middle" class="d" transform="rotate(-90 423.0 226.6)">ø84 mm (flange)</text>
<line x1="435.0" y1="124.6" x2="435.0" y2="320.6" stroke="#cc2200" stroke-width="0.9"/>
<line x1="420.0" y1="124.6" x2="441.0" y2="124.6" stroke="#cc2200" stroke-width="0.6" stroke-dasharray="3,2"/>
<line x1="420.0" y1="320.6" x2="441.0" y2="320.6" stroke="#cc2200" stroke-width="0.6" stroke-dasharray="3,2"/>
<polygon points="435.0,124.6 432.0,130.6 438.0,130.6" fill="#cc2200"/>
<polygon points="435.0,320.6 432.0,314.6 438.0,314.6" fill="#cc2200"/>
<text x="449.0" y="226.60000000000002" text-anchor="middle" class="d" transform="rotate(-90 449.0 226.60000000000002)">ø70 mm (corpo)</text>
<line x1="85" y1="73.0" x2="99.0" y2="73.0" stroke="#cc2200" stroke-width="0.9"/>
<line x1="85" y1="91.0" x2="85" y2="79.0" stroke="#cc2200" stroke-width="0.6" stroke-dasharray="3,2"/>
<line x1="99.0" y1="91.0" x2="99.0" y2="79.0" stroke="#cc2200" stroke-width="0.6" stroke-dasharray="3,2"/>
<polygon points="85,73.0 91,70.0 91,76.0" fill="#cc2200"/>
<polygon points="99.0,73.0 93.0,70.0 93.0,76.0" fill="#cc2200"/>
<text x="92.0" y="68.0" text-anchor="middle" class="d" fill="#000000">5 mm</text>
<line x1="62.6" y1="281.4" x2="85" y2="281.4" stroke="#cc2200" stroke-width="0.9"/>
<line x1="62.6" y1="267.4" x2="62.6" y2="287.4" stroke="#cc2200" stroke-width="0.6" stroke-dasharray="3,2"/>
<line x1="85" y1="267.4" x2="85" y2="287.4" stroke="#cc2200" stroke-width="0.6" stroke-dasharray="3,2"/>
<polygon points="62.6,281.4 68.6,278.4 68.6,284.4" fill="#cc2200"/>
<polygon points="85,281.4 79,278.4 79,284.4" fill="#cc2200"/>
<text x="73.8" y="276.4" text-anchor="middle" class="d" fill="#000000">8 mm (hub)</text>
<text x="505.0" y="91" text-anchor="middle" class="t" fill="#000000">VISTA FRONTAL (END)</text>
<circle cx="505.0" cy="222.6" r="117.6" fill="#ffdd44" stroke="#cc9900" stroke-width="2"/>
<circle cx="505.0" cy="222.6" r="98.0" fill="#ee8822" stroke="#cc5500" stroke-width="1.5"/>
<circle cx="505.0" cy="222.6" r="89.6" fill="white" stroke="#777777" stroke-width="0.8"/>
<circle cx="505.0" cy="222.6" r="16.799999999999997" fill="#aaaaaa" stroke="#000000" stroke-width="1"/>
<circle cx="505.0" cy="222.6" r="2.6599999999999997" fill="white" stroke="#000000" stroke-width="1"/>
<circle cx="611.4" cy="222.6" r="3.5" fill="white" stroke="#000000" stroke-width="0.6"/>
<circle cx="597.1451029626643" cy="275.79999999999995" r="3.5" fill="white" stroke="#000000" stroke-width="0.6"/>
<circle cx="558.2" cy="314.74510296266425" r="3.5" fill="white" stroke="#000000" stroke-width="0.6"/>
<circle cx="505.0" cy="329.0" r="3.5" fill="white" stroke="#000000" stroke-width="0.6"/>
<circle cx="451.8" cy="314.74510296266425" r="3.5" fill="white" stroke="#000000" stroke-width="0.6"/>
<circle cx="412.8548970373357" cy="275.79999999999995" r="3.5" fill="white" stroke="#000000" stroke-width="0.6"/>
<circle cx="398.6" cy="222.6" r="3.5" fill="white" stroke="#000000" stroke-width="0.6"/>
<circle cx="412.8548970373357" cy="169.39999999999998" r="3.5" fill="white" stroke="#000000" stroke-width="0.6"/>
<circle cx="451.79999999999995" cy="130.45489703733574" r="3.5" fill="white" stroke="#000000" stroke-width="0.6"/>
<circle cx="505.0" cy="116.2" r="3.5" fill="white" stroke="#000000" stroke-width="0.6"/>
<circle cx="558.2" cy="130.45489703733574" r="3.5" fill="white" stroke="#000000" stroke-width="0.6"/>
<circle cx="597.1451029626643" cy="169.39999999999995" r="3.5" fill="white" stroke="#000000" stroke-width="0.6"/>
<text x="505.0" y="360.2" text-anchor="middle" class="n" fill="#000000">12× ø2.5mm decorativos</text>
<rect x="85" y="400.2" width="220" height="52" fill="#f0f6ff" stroke="#1a3a6b" stroke-width="1"/>
<text x="93" y="418.2" text-anchor="start" class="n" fill="#000000">Hub dianteiro (ø12mm): encaixa no eixo do motor por pressfit — furo ø1.9mm</text>
<text x="93" y="432.2" text-anchor="start" class="n" fill="#000000">Flanges amarelas ø84mm: parafusos decorativos simulam flange real do moinho</text>
<text x="93" y="446.2" text-anchor="start" class="n" fill="#000000">Bocal cônico: simula entrada de minério do moinho de bolas real</text>

</svg>